# xmcd
#
# Track frame offsets:
#	150
#	23992
#	41665
#	62507
#	82595
#	104847
#	126827
#	147607
#	171297
#	192407
#	219467
#	240082
#	264737
#	285600
#	307502
#
# Disc length: 4412 seconds
#
# Revision: 1
# Processed by: cddbd v1.5.2PL0 Copyright (c) Steve Scherf et al.
# Submitted via: audiograbber 1.83.01
#
DISCID=d1113a0f
DTITLE=Various Artist - Quiet Storm For Lovers - Hiro T's Selection
DYEAR=1992
DGENRE=R&B
TTITLE0=Ray, Goodman and Brown - (Baby) Let's Make Love Tonight
TTITLE1=Marc Nelson - Count On Me
TTITLE2=The O'jays - Keep On Lovin' Me
TTITLE3=Peabo Bryson - When You're In Love
TTITLE4=Emanuel Rahiem - Always Be Around
TTITLE5=Freddie Jackson - Can We Try
TTITLE6=Phil Perry - Call Me
TTITLE7=Terry Steele - Prisoner Of Love
TTITLE8=Terry Steele - A Place In My Heart
TTITLE9=The Whispers - More Of The Night
TTITLE10=Gary Brown - Precious Moments
TTITLE11=Bebe and Cece Winans - Searching For Love (It's Real)
TTITLE12=Ashford and Simpson - I'll Be There For You
TTITLE13=Lillo Thomas - Wanna Make Love (All Night Long)
TTITLE14=Meli'sa Morgan - Do Me Baby
EXTD=
EXTT0=
EXTT1=
EXTT2=
EXTT3=
EXTT4=
EXTT5=
EXTT6=
EXTT7=
EXTT8=
EXTT9=
EXTT10=
EXTT11=
EXTT12=
EXTT13=
EXTT14=
PLAYORDER=
